<svg xmlns="http://www.w3.org/2000/svg" width="512" height="512" viewBox="0 0 512 512" version="1.1"><path d="M 293 220.864 L 293 308.727 291.979 314.109 L 290.959 319.491 288.020 325.771 L 285.081 332.051 280.052 336.949 L 275.023 341.848 269.262 344.016 L 263.500 346.185 253.500 345.806 L 243.500 345.426 237.914 342.843 L 232.327 340.260 228.533 336.467 L 224.740 332.673 222.438 327.586 L 220.137 322.500 218.953 314.250 L 217.770 306 197.885 306 L 178 306 178.008 311.250 L 178.015 316.500 179.041 323 L 180.066 329.500 182.095 335.690 L 184.123 341.881 187.915 347.690 L 191.706 353.500 196.103 357.812 L 200.500 362.123 205.944 365.744 L 211.389 369.365 218.444 372.097 L 225.500 374.829 233.500 376.508 L 241.500 378.186 255.500 378.253 L 269.500 378.319 278.295 376.167 L 287.091 374.016 294.446 370.429 L 301.802 366.842 308.447 361.361 L 315.093 355.879 319.489 349.908 L 323.885 343.936 326.393 338.636 L 328.900 333.335 331.170 325.917 L 333.440 318.500 333.759 225.750 L 334.078 133 313.539 133 L 293 133 293 220.864" stroke="none" fill="#fafbfb" fill-rule="evenodd"/><path d="M 227 1.115 L 219.500 1.972 208.500 4.032 L 197.500 6.092 186.896 9.063 L 176.292 12.033 168.396 14.920 L 160.500 17.808 151.433 21.804 L 142.366 25.800 132.933 31.016 L 123.500 36.232 113 43.262 L 102.500 50.292 95 56.375 L 87.500 62.458 77.151 72.479 L 66.802 82.500 58.651 92.352 L 50.500 102.204 43.672 112.352 L 36.844 122.500 31.376 132.231 L 25.909 141.962 20.844 153.731 L 15.780 165.500 12.504 175.500 L 9.229 185.500 7.126 194 L 5.024 202.500 2.903 214.500 L 0.781 226.500 0.263 248.679 L -0.255 270.857 0.930 282.177 L 2.115 293.496 4.107 303.998 L 6.099 314.500 9.165 325.500 L 12.232 336.500 17.156 349.173 L 22.081 361.845 27.508 372.382 L 32.935 382.918 38.105 391.209 L 43.275 399.500 51.835 411 L 60.395 422.500 74.947 437.053 L 89.500 451.605 101 460.165 L 112.500 468.725 121 474.030 L 129.500 479.335 141 485.113 L 152.500 490.892 164.400 495.487 L 176.300 500.081 189.400 503.521 L 202.500 506.961 214.500 509.092 L 226.500 511.224 249 511.725 L 271.500 512.226 285.369 510.615 L 299.238 509.005 310.869 506.433 L 322.500 503.862 337.500 498.904 L 352.500 493.947 368.500 486.091 L 384.500 478.235 395.500 470.996 L 406.500 463.756 416 456.157 L 425.500 448.558 434.379 440.029 L 443.258 431.500 451.687 421.500 L 460.115 411.500 469.160 398.057 L 478.206 384.614 486.076 368.557 L 493.947 352.500 498.904 337.500 L 503.862 322.500 506.496 310.588 L 509.131 298.676 510.283 287.838 L 511.435 277 512.217 277 L 513 277 512.921 254.750 L 512.842 232.500 512.229 234 L 511.615 235.500 510.338 224.258 L 509.062 213.016 506.462 201.258 L 503.862 189.500 498.916 174.500 L 493.970 159.500 485.534 142.500 L 477.099 125.500 470.436 115.500 L 463.772 105.500 456.219 96 L 448.666 86.500 437.083 74.917 L 425.500 63.334 416 55.787 L 406.500 48.241 397 41.913 L 387.500 35.585 372.500 27.891 L 357.500 20.197 347.500 16.479 L 337.500 12.762 329.716 10.424 L 321.931 8.085 310.716 5.578 L 299.500 3.071 287.030 1.536 L 274.560 0 254.530 0.130 L 234.500 0.259 227 1.115 M 293 220.864 L 293 308.727 291.979 314.109 L 290.959 319.491 288.020 325.771 L 285.081 332.051 280.052 336.949 L 275.023 341.848 269.262 344.016 L 263.500 346.185 253.500 345.806 L 243.500 345.426 237.914 342.843 L 232.327 340.260 228.533 336.467 L 224.740 332.673 222.438 327.586 L 220.137 322.500 218.953 314.250 L 217.770 306 197.885 306 L 178 306 178.008 311.250 L 178.015 316.500 179.041 323 L 180.066 329.500 182.095 335.690 L 184.123 341.881 187.915 347.690 L 191.706 353.500 196.103 357.812 L 200.500 362.123 205.944 365.744 L 211.389 369.365 218.444 372.097 L 225.500 374.829 233.500 376.508 L 241.500 378.186 255.500 378.253 L 269.500 378.319 278.295 376.167 L 287.091 374.016 294.446 370.429 L 301.802 366.842 308.447 361.361 L 315.093 355.879 319.489 349.908 L 323.885 343.936 326.393 338.636 L 328.900 333.335 331.170 325.917 L 333.440 318.500 333.759 225.750 L 334.078 133 313.539 133 L 293 133 293 220.864 M 0.428 256 L 0.428 278.500 0.747 267.250 L 1.066 256 0.747 244.750 L 0.428 233.500 0.428 256" stroke="none" fill="#144070" fill-rule="evenodd"/></svg>